<svg version="1.0" xmlns="http://www.w3.org/2000/svg" width="200px" height="200px" viewBox="924 796 200 200">
	<style>
		path { fill: black; }
		@media (prefers-color-scheme: dark) {
		path { fill: white; }
		}
	</style>
	<path d="M1121.463,951.127l-20.922-20.352v-95.593c0-4.216-3.431-7.646-7.646-7.646h-137.79c-4.216,0-7.646,3.43-7.646,7.646v95.593
	l-20.921,20.351c-2.294,2.058-3.139,5.325-2.098,8.248c1.08,3.044,3.976,5.089,7.206,5.089h184.707c3.234,0,6.131-2.048,7.204-5.083
	C1124.602,956.451,1123.758,953.186,1121.463,951.127z M959.785,839.862h128.431v87.353H959.785V839.862z M943.174,952.138
	l12.951-12.598h135.75l12.951,12.598H943.174z"/>
</svg>